<?xml version="1.0" encoding="UTF-8"?>
<svg version="1.1" xmlns="http://www.w3.org/2000/svg" width="1256" height="500">
<path d="M0 0 C0 121.77 0 243.54 0 369 C144.31298315 379.99315747 144.31298315 379.99315747 267 323 C267.85207031 322.21109375 268.70414062 321.4221875 269.58203125 320.609375 C297.35994501 294.18754837 312.38539213 254.34305466 313.97851562 216.54394531 C314.88653791 176.88842018 301.38086081 137.00900471 274.4375 107.625 C272.63368529 105.74164296 270.8214077 103.8663481 269 102 C267.74509766 100.63488281 267.74509766 100.63488281 266.46484375 99.2421875 C240.37249153 71.61499103 201.52085495 56.83955591 164.10675049 54.78634644 C160.21642273 54.67859957 156.32915715 54.62006179 152.4375 54.5859375 C151.02546146 54.56715197 149.61343328 54.54757361 148.20141602 54.5272522 C144.54547332 54.47670241 140.88949452 54.4366729 137.23339844 54.39910889 C133.478431 54.35857511 129.72360139 54.30780956 125.96875 54.2578125 C118.64589069 54.16103462 111.32312025 54.08089493 104 54 C104 36.18 104 18.36 104 0 C111.12423155 -0.04242017 118.24798229 -0.08242735 125.37223053 -0.10350037 C128.6928124 -0.11388423 132.01320386 -0.12882384 135.33374023 -0.15087891 C156.72856793 -0.28919877 178.53727948 -0.39006185 199.5625 4.125 C200.57513916 4.33600342 201.58777832 4.54700684 202.63110352 4.7644043 C237.95666483 12.51226803 271.65249646 29.05447371 298 54 C299.36965259 55.19366371 300.74445266 56.38145372 302.125 57.5625 C309.91966893 64.38869303 316.62896054 71.83226546 323 80 C323.42684082 80.5451123 323.85368164 81.09022461 324.29345703 81.65185547 C332.21929481 91.85546601 338.88470074 102.62549529 345 114 C345.36722168 114.68223633 345.73444336 115.36447266 346.11279297 116.06738281 C361.47069004 145.19617021 368.22433516 178.03733139 368.25 210.75 C368.25067474 211.5252301 368.25134949 212.30046021 368.25204468 213.09918213 C368.23435507 225.93852875 367.52468952 238.3790155 365 251 C364.82839355 251.86689453 364.65678711 252.73378906 364.47998047 253.62695312 C353.287672 308.31823348 321.07173055 356.16478013 274.89892578 387.42236328 C244.24888708 407.63623727 206.90691473 422.12764507 169.79878235 422.15390015 C169.0250955 422.1582824 168.25140865 422.16266465 167.45427674 422.1671797 C164.88919284 422.18042105 162.32414314 422.18671303 159.7590332 422.19287109 C157.90852204 422.20078344 156.05801238 422.20905307 154.20750427 422.21765137 C148.15527797 422.24373291 142.10304522 422.25916164 136.05078125 422.2734375 C133.95940841 422.27880223 131.8680356 422.28417975 129.77666283 422.28956985 C121.07358682 422.31117512 112.37051256 422.32990986 103.66741657 422.34119225 C91.23279822 422.35742406 78.79849256 422.39061057 66.36399204 422.44759309 C57.59848388 422.48638184 48.83305908 422.50583529 40.06746739 422.51111281 C34.84228847 422.51475298 29.61744415 422.52663271 24.39235878 422.55921555 C19.47313262 422.58945517 14.55444085 422.5955517 9.63514137 422.58383179 C7.83976745 422.5836124 6.04436753 422.59180425 4.24908066 422.60948563 C-13.10199024 422.77093912 -26.06250881 419.0099301 -39.2109375 406.9765625 C-51.47595148 394.33560939 -54.31233244 379.3657029 -54.26069641 362.39482117 C-54.26372209 361.03839417 -54.26761365 359.68196888 -54.27228898 358.32554656 C-54.28252415 354.62209047 -54.28039866 350.91873168 -54.27610838 347.21526778 C-54.27363296 343.21173868 -54.28266545 339.20823251 -54.29014587 335.20471191 C-54.30287249 327.37038966 -54.30468909 319.53610172 -54.30234561 311.70177086 C-54.30055993 305.33102607 -54.30231745 298.96029166 -54.30657005 292.58954811 C-54.30716524 291.68156256 -54.30776043 290.77357701 -54.30837366 289.83807674 C-54.30958546 287.99327359 -54.31079959 286.14847044 -54.31201603 284.30366728 C-54.32288383 267.01632855 -54.32073274 249.72900933 -54.31463119 232.4416695 C-54.30946331 216.64363905 -54.32071543 200.84567028 -54.33972941 185.04765203 C-54.35912452 168.80785863 -54.36736083 152.56809438 -54.36360615 136.32828933 C-54.36169657 127.21827115 -54.3641579 118.10830545 -54.37832069 108.99829674 C-54.39025684 101.24234484 -54.39161442 93.48647774 -54.37953053 85.73052462 C-54.37365736 81.77749434 -54.37249888 77.82461899 -54.38453293 73.8715992 C-54.39544444 70.24500706 -54.39222653 66.61869823 -54.37827124 62.99211905 C-54.37440229 61.07553717 -54.38512825 59.15894245 -54.39656812 57.24239081 C-54.29409572 40.66612293 -49.90395691 27.40995453 -38.41796875 15.2890625 C-27.65781797 5.10255465 -14.84262078 0 0 0 Z " fill="#24252A" transform="translate(54,78)"/>
<path d="M0 0 C2.41832927 0.0017153 4.83666039 0.00164117 7.25498962 -0.00012207 C12.30909165 0.00152478 17.36274678 0.02009732 22.41674805 0.05175781 C28.83554397 0.09128242 35.25375208 0.09581577 41.67264652 0.08829498 C46.66527003 0.08519602 51.65776606 0.09745116 56.6503582 0.11442566 C59.01379023 0.1213685 61.37723671 0.12459102 63.74067879 0.12373352 C82.33750893 0.13398307 100.57601684 1.33743031 118.58984375 6.28125 C119.53577393 6.53616211 120.4817041 6.79107422 121.45629883 7.05371094 C175.55158501 22.12243697 221.28879741 58.00575167 249.27734375 106.546875 C260.56925593 126.60608485 273.73057784 153.10016688 273.08984375 176.59375 C269.95509054 173.88868259 268.17276606 170.45278919 266.15234375 166.90625 C252.51611869 143.65113456 233.52106667 121.94304337 212.08984375 105.59375 C211.54811523 105.17561035 211.00638672 104.7574707 210.44824219 104.32666016 C143.09691308 52.55717247 72.44879671 54.53176047 -12.91015625 53.59375 C-12.91015625 157.54375 -12.91015625 261.49375 -12.91015625 368.59375 C46.86921342 370.83860008 46.86921342 370.83860008 108.90234375 361.84375 C109.76359863 361.58770996 110.62485352 361.33166992 111.51220703 361.06787109 C119.68482415 358.55659645 127.41858518 355.34934529 135.08984375 351.59375 C135.71020508 351.29774902 136.33056641 351.00174805 136.96972656 350.69677734 C159.31809818 339.94096979 180.24141447 322.22004814 193.71484375 301.39453125 C194.16859375 300.80027344 194.62234375 300.20601563 195.08984375 299.59375 C195.74984375 299.59375 196.40984375 299.59375 197.08984375 299.59375 C196.39520066 330.09489638 182.45784325 358.48799014 162.08984375 380.59375 C161.22746094 381.53863281 160.36507812 382.48351562 159.4765625 383.45703125 C135.29254721 408.787548 101.63845648 421.66589955 66.93938828 422.65505219 C61.10324659 422.75829038 55.26658101 422.7593456 49.4296875 422.76171875 C47.54887366 422.76494061 45.66806005 422.76830534 43.7872467 422.77180481 C39.86654072 422.77775509 35.94585666 422.77964879 32.02514648 422.77905273 C27.03033427 422.77895094 22.03566363 422.79263973 17.04088497 422.80982494 C13.1638577 422.82100035 9.28686419 422.8229703 5.40982246 422.82244301 C3.56924511 422.82361337 1.72866661 422.8279813 -0.11189461 422.83577538 C-20.3874358 422.91365562 -36.94186336 420.84878678 -52.25390625 406.37890625 C-64.39565783 393.89313837 -67.22142893 379.80099603 -67.17085266 363.02616882 C-67.17387733 361.6616426 -67.17776839 360.29711807 -67.18244523 358.9325965 C-67.19269347 355.20214758 -67.19055154 351.4717951 -67.18626463 347.74133837 C-67.18379161 343.71054408 -67.19281876 339.67977266 -67.20030212 335.64898682 C-67.21303541 327.75938347 -67.2148445 319.86981417 -67.21250186 311.98020228 C-67.21071691 305.56508861 -67.21247215 299.14998526 -67.2167263 292.73487282 C-67.21732149 291.82091233 -67.21791668 290.90695185 -67.21852991 289.96529559 C-67.21974169 288.10841117 -67.22095583 286.25152675 -67.22217228 284.39464233 C-67.23304267 266.99002268 -67.23088778 249.58542241 -67.22478744 232.18080167 C-67.21961947 216.2721013 -67.23087145 200.36346218 -67.24988566 184.45477393 C-67.2692762 168.10540585 -67.27751787 151.75606673 -67.2737624 135.40668708 C-67.27185211 126.23352881 -67.2743211 117.06042266 -67.28847694 107.88727379 C-67.30040726 100.07747048 -67.30177718 92.26775137 -67.28968678 84.45794686 C-67.2838095 80.47669409 -67.28266661 76.4955952 -67.29468918 72.5143528 C-67.30558668 68.86310134 -67.30239914 65.21213154 -67.28842749 61.56089304 C-67.28455123 59.62861223 -67.29529604 57.69631873 -67.30672437 55.76406783 C-67.20719651 39.58688196 -62.5314131 26.65783165 -51.3125 14.87890625 C-36.11000565 0.41799699 -19.88441642 -0.15045192 0 0 Z " fill="#24252A" transform="translate(145.91015625,-0.59375)"/>
<path d="M0 0 C112.21869783 0 112.21869783 0 141.41015625 28.33984375 C161.40942026 49.50544563 169.89542596 79.14710462 169.1796875 107.81640625 C169.09074219 109.39228516 169.09074219 109.39228516 169 111 C168.96422852 111.66370605 168.92845703 112.32741211 168.89160156 113.01123047 C167.18987989 141.03995274 157.16758247 166.88370577 136.5625 186.375 C97.81198989 220.00957198 50.09264027 210 0 210 C0 140.7 0 71.4 0 0 Z M31 26 C31 78.14 31 130.28 31 184 C79.23407076 185.33702332 79.23407076 185.33702332 117.65234375 163.3984375 C134.7160993 145.96558241 138.4610712 122.44520489 138.21484375 99.04296875 C137.66757837 77.1353579 128.7836626 57.07210404 113 42 C89.26742515 22.08938889 60.91305204 26 31 26 Z " fill="#24252A" transform="translate(530,162)"/>
<path d="M0 0 C11.64240696 9.97174766 17.20572604 21.88834539 19.23828125 36.92578125 C19.48103011 40.62080114 19.49303168 44.29490749 19.46533203 47.99682617 C19.46562408 49.04206451 19.46591614 50.08730286 19.46621704 51.16421509 C19.4648369 54.57831471 19.44933824 57.99218906 19.43359375 61.40625 C19.42985894 63.78949362 19.42701418 66.17273879 19.42501831 68.5559845 C19.41741876 74.79810907 19.39780213 81.04013909 19.37561035 87.28222656 C19.35507237 93.66404949 19.34599965 100.04588785 19.3359375 106.42773438 C19.31455253 118.92713135 19.27940065 131.42643361 19.23828125 143.92578125 C9.33828125 143.92578125 -0.56171875 143.92578125 -10.76171875 143.92578125 C-11.09171875 136.33578125 -11.42171875 128.74578125 -11.76171875 120.92578125 C-12.71046875 122.55515625 -13.65921875 124.18453125 -14.63671875 125.86328125 C-22.46795986 138.04869242 -33.4711692 145.22624936 -47.5703125 148.54418945 C-64.03622154 151.41141492 -80.0678566 148.54784014 -93.76171875 138.92578125 C-94.71498047 138.26642578 -94.71498047 138.26642578 -95.6875 137.59375 C-103.56836229 131.53020407 -109.38422763 121.76500353 -110.76171875 111.92578125 C-111.83865552 98.38030986 -111.43762485 86.9340952 -103.13671875 75.67578125 C-87.90485833 57.87707027 -64.6730523 54.33055585 -42.7734375 51.21484375 C-27.84778556 49.27992927 -27.84778556 49.27992927 -14.63671875 42.55078125 C-12.37827389 39.38895845 -11.76171875 37.82181292 -11.76171875 33.92578125 C-12.63075181 29.55012358 -13.82355116 26.01053752 -16.76171875 22.61328125 C-28.90822385 15.78087213 -42.79645552 14.83903809 -56.41796875 17.69140625 C-63.97983373 20.3089749 -70.27127309 24.19011277 -74.76171875 30.92578125 C-76.08171875 35.21578125 -77.40171875 39.50578125 -78.76171875 43.92578125 C-88.00171875 42.93578125 -97.24171875 41.94578125 -106.76171875 40.92578125 C-106.76171875 27.41894967 -104.34626386 18.66665678 -95.40625 8.49609375 C-71.80444337 -14.44332835 -27.0187221 -20.29270359 0 0 Z M-15.01171875 66.17578125 C-25.18520811 72.47872841 -36.92146315 73.78038631 -48.56420898 75.35571289 C-60.21028877 77.02152721 -69.81606359 79.86944311 -77.76171875 88.92578125 C-81.10115874 93.72689306 -81.62157628 99.25853844 -80.76171875 104.92578125 C-78.39726414 112.63840699 -73.24769833 116.98912593 -66.38671875 120.80078125 C-57.26950616 123.76876274 -45.02024827 123.15313893 -36.25390625 119.3828125 C-23.05683696 111.66728453 -15.40055941 99.12718801 -11.44921875 84.67578125 C-10.10579277 77.90842982 -10.61013104 70.78933583 -10.76171875 63.92578125 C-12.28349456 63.83091292 -12.28349456 63.83091292 -15.01171875 66.17578125 Z " fill="#24252A" transform="translate(1218.76171875,228.07421875)"/>
<path d="M0 0 C11.64240696 9.97174766 17.20572604 21.88834539 19.23828125 36.92578125 C19.48103011 40.62080114 19.49303168 44.29490749 19.46533203 47.99682617 C19.46562408 49.04206451 19.46591614 50.08730286 19.46621704 51.16421509 C19.4648369 54.57831471 19.44933824 57.99218906 19.43359375 61.40625 C19.42985894 63.78949362 19.42701418 66.17273879 19.42501831 68.5559845 C19.41741876 74.79810907 19.39780213 81.04013909 19.37561035 87.28222656 C19.35507237 93.66404949 19.34599965 100.04588785 19.3359375 106.42773438 C19.31455253 118.92713135 19.27940065 131.42643361 19.23828125 143.92578125 C9.33828125 143.92578125 -0.56171875 143.92578125 -10.76171875 143.92578125 C-11.09171875 136.33578125 -11.42171875 128.74578125 -11.76171875 120.92578125 C-12.71046875 122.55515625 -13.65921875 124.18453125 -14.63671875 125.86328125 C-22.46795986 138.04869242 -33.4711692 145.22624936 -47.5703125 148.54418945 C-64.03622154 151.41141492 -80.0678566 148.54784014 -93.76171875 138.92578125 C-94.71498047 138.26642578 -94.71498047 138.26642578 -95.6875 137.59375 C-103.56836229 131.53020407 -109.38422763 121.76500353 -110.76171875 111.92578125 C-111.83865552 98.38030986 -111.43762485 86.9340952 -103.13671875 75.67578125 C-87.90485833 57.87707027 -64.6730523 54.33055585 -42.7734375 51.21484375 C-27.84778556 49.27992927 -27.84778556 49.27992927 -14.63671875 42.55078125 C-12.37827389 39.38895845 -11.76171875 37.82181292 -11.76171875 33.92578125 C-12.63075181 29.55012358 -13.82355116 26.01053752 -16.76171875 22.61328125 C-28.90822385 15.78087213 -42.79645552 14.83903809 -56.41796875 17.69140625 C-63.97983373 20.3089749 -70.27127309 24.19011277 -74.76171875 30.92578125 C-76.08171875 35.21578125 -77.40171875 39.50578125 -78.76171875 43.92578125 C-88.00171875 42.93578125 -97.24171875 41.94578125 -106.76171875 40.92578125 C-106.76171875 27.41894967 -104.34626386 18.66665678 -95.40625 8.49609375 C-71.80444337 -14.44332835 -27.0187221 -20.29270359 0 0 Z M-15.01171875 66.17578125 C-25.18520811 72.47872841 -36.92146315 73.78038631 -48.56420898 75.35571289 C-60.21028877 77.02152721 -69.81606359 79.86944311 -77.76171875 88.92578125 C-81.10115874 93.72689306 -81.62157628 99.25853844 -80.76171875 104.92578125 C-78.39726414 112.63840699 -73.24769833 116.98912593 -66.38671875 120.80078125 C-57.26950616 123.76876274 -45.02024827 123.15313893 -36.25390625 119.3828125 C-23.05683696 111.66728453 -15.40055941 99.12718801 -11.44921875 84.67578125 C-10.10579277 77.90842982 -10.61013104 70.78933583 -10.76171875 63.92578125 C-12.28349456 63.83091292 -12.28349456 63.83091292 -15.01171875 66.17578125 Z " fill="#24252A" transform="translate(838.76171875,228.07421875)"/>
<path d="M0 0 C9.57 0 19.14 0 29 0 C33.49951217 10.12390237 33.49951217 10.12390237 35.02026367 14.41650391 C35.53901062 15.87210724 35.53901062 15.87210724 36.0682373 17.3571167 C36.43114868 18.38653381 36.79406006 19.41595093 37.16796875 20.4765625 C37.56060913 21.58074524 37.95324951 22.68492798 38.35778809 23.8225708 C39.20025853 26.19268518 40.04118693 28.56334816 40.88070679 30.93450928 C42.87433696 36.56468366 44.87763322 42.19141624 46.88056374 47.8182869 C47.56483356 49.74093179 48.24870561 51.66371785 48.93254089 53.58651733 C53.11070209 65.33075029 57.32927607 77.06026519 61.56900024 88.78240967 C62.31335708 90.84051539 63.05715387 92.89882375 63.80038452 94.95733643 C64.82783002 97.80277089 65.85694949 100.64759331 66.88671875 103.4921875 C67.18993042 104.33219299 67.49314209 105.17219849 67.80554199 106.03765869 C69.24931895 110.08298163 69.24931895 110.08298163 71 114 C80.85023152 88.53692455 90.54826847 63.01837726 100.16818237 37.46742249 C101.72907732 33.32291516 103.29172549 29.17907104 104.85516357 25.03552246 C105.62957332 22.98218269 106.40319248 20.9285446 107.17608643 18.87463379 C108.29312968 15.90760294 109.41368697 12.94192275 110.53515625 9.9765625 C110.87155624 9.08093597 111.20795624 8.18530945 111.55455017 7.26254272 C111.86276199 6.44967804 112.17097382 5.63681335 112.48852539 4.79931641 C112.75758194 4.0862735 113.02663849 3.37323059 113.30384827 2.63858032 C114 1 114 1 115 0 C117.14558827 -0.08775605 119.29404421 -0.10695219 121.44140625 -0.09765625 C122.74658203 -0.09443359 124.05175781 -0.09121094 125.39648438 -0.08789062 C126.7851569 -0.07953401 128.17382877 -0.07106905 129.5625 -0.0625 C130.95507656 -0.05748666 132.34765481 -0.05292347 133.74023438 -0.04882812 C137.1601987 -0.03699434 140.58007844 -0.0205088 144 0 C141.9733093 7.1375101 139.56172598 14.05052975 136.88671875 20.96875 C136.28339218 22.5427935 136.28339218 22.5427935 135.6678772 24.14863586 C134.79859055 26.41549662 133.92768859 28.68173849 133.05532837 30.94741821 C130.93914758 36.44365261 128.83254117 41.94355559 126.72512627 47.44315529 C125.98658833 49.37007757 125.24760299 51.29682783 124.50856018 53.22355652 C121.01033697 62.34635658 117.53331991 71.47705836 114.0703125 80.61328125 C113.82781832 81.2530125 113.58532413 81.89274376 113.33548164 82.55186081 C111.20877378 88.16314291 109.08375667 93.77506463 106.95932007 99.38720703 C103.97873961 107.2603709 100.9933444 115.1316795 98 123 C97.53720642 124.21701599 97.07441284 125.43403198 96.59759521 126.68792725 C95.20829406 130.33902032 93.81345269 133.98798413 92.41796875 137.63671875 C91.98913895 138.76366653 91.56030914 139.89061432 91.1184845 141.05171204 C90.72384506 142.08096298 90.32920563 143.11021393 89.92260742 144.1706543 C89.57453537 145.08163376 89.22646332 145.99261322 88.86784363 146.93119812 C88 149 88 149 87 150 C84.55169574 150.08843793 82.13179401 150.11528752 79.68359375 150.09765625 C78.58701195 150.09553383 78.58701195 150.09553383 77.46827698 150.09336853 C75.12464368 150.08775408 72.78110461 150.07519922 70.4375 150.0625 C68.85221492 150.05748686 67.26692834 150.05292363 65.68164062 150.04882812 C61.7877239 150.03777997 57.89387795 150.02050572 54 150 C50.93475098 143.40042637 48.35931189 136.69874498 45.9375 129.83984375 C45.55347015 128.7614473 45.16944031 127.68305084 44.77377319 126.57197571 C43.51261519 123.02829093 42.25633591 119.48289689 41 115.9375 C40.11446544 113.44680838 39.22855427 110.95625064 38.34228516 108.46582031 C36.7283801 103.93022336 35.11557987 99.39423664 33.50418282 94.85774803 C29.23163122 82.83020779 24.93632609 70.81082439 20.640625 58.79153442 C19.41888399 55.37279835 18.19760418 51.95389801 16.9765625 48.53491211 C16.58978333 47.45193344 16.20300415 46.36895477 15.80450439 45.25315857 C15.04158936 43.11663598 14.27884966 40.98005078 13.51629639 38.84339905 C11.6508317 33.61735238 9.78281981 28.39224322 7.9084301 23.16939163 C6.97029435 20.55488627 6.03332392 17.93996398 5.09645462 15.32500458 C4.42491008 13.4521279 3.75169897 11.57984907 3.07846069 9.70758057 C2.67567902 8.58301453 2.27289734 7.45844849 1.85791016 6.29980469 C1.49863434 5.29906921 1.13935852 4.29833374 0.76919556 3.26727295 C0 1 0 1 0 0 Z " fill="#24252A" transform="translate(878,222)"/>
<path d="M0 0 C9.57 0 19.14 0 29 0 C29 49.5 29 99 29 150 C19.43 150 9.86 150 0 150 C0 100.5 0 51 0 0 Z " fill="#24252A" transform="translate(1046,222)"/>
<path d="M0 0 C11.55 0 23.1 0 35 0 C35 10.56 35 21.12 35 32 C23.45 32 11.9 32 0 32 C0 21.44 0 10.88 0 0 Z " fill="#24252A" transform="translate(1043,167)"/>
</svg>
