<svg version="1.1" id="Layer_1" xmlns="http://www.w3.org/2000/svg" xmlns:xlink="http://www.w3.org/1999/xlink" x="0px" y="0px" width="100%" viewBox="0 0 1000 1002" enable-background="new 0 0 1000 1002" xml:space="preserve">

<path fill="#000000" opacity="1.000000" stroke="none" d="
M176.468658,1003.000000 
	C170.870132,1002.002563 165.680832,1001.241760 160.619827,999.970215 
	C121.603142,990.167053 96.158661,965.517212 83.611908,927.760132 
	C80.539696,918.514893 79.196655,908.277649 79.185425,898.494080 
	C78.941887,686.340088 78.935608,474.185791 79.095284,262.031708 
	C79.112053,239.757339 86.544197,219.482574 99.922134,201.713654 
	C113.712906,183.396362 131.435608,170.078201 153.716843,163.881851 
	C163.956406,161.034271 174.631912,159.754211 185.746399,157.642380 
	C185.746399,404.534332 185.746399,649.934082 185.746399,895.744507 
	C187.524353,895.842651 188.949585,895.990112 190.374832,895.990295 
	C297.368561,896.000916 404.362976,896.184387 511.355164,895.779541 
	C525.607483,895.725586 539.859131,892.768921 554.092102,891.003723 
	C572.721619,888.693176 590.613220,883.373474 608.164062,876.957825 
	C625.517822,870.614258 642.626282,863.585754 658.121033,853.334534 
	C672.913635,843.547791 688.256042,834.353577 701.884644,823.113892 
	C715.122192,812.196838 727.259644,799.674133 738.462769,786.638367 
	C749.719055,773.540710 759.637268,759.220520 769.392029,744.924500 
	C780.202637,729.080872 788.634949,711.789368 794.796265,693.683044 
	C800.989685,675.482544 806.041870,656.856812 810.749939,638.204346 
	C812.884949,629.745605 813.187622,620.790222 813.948120,612.027710 
	C814.843506,601.711426 815.775391,591.365479 815.902039,581.022644 
	C816.120972,563.139221 814.119507,545.442810 811.185242,527.761414 
	C808.086975,509.091675 803.349487,490.910461 796.875305,473.239746 
	C787.157410,446.715393 774.813110,421.400391 757.346924,399.020569 
	C745.898499,384.351532 734.453674,369.488129 721.389099,356.316772 
	C701.671204,336.437592 679.154297,319.853638 654.605957,306.129272 
	C633.777466,294.484528 611.974365,285.141510 589.053711,278.695160 
	C576.052979,275.038727 562.699036,272.528748 549.400391,270.061768 
	C514.791321,263.641449 479.776947,266.562012 444.917877,266.042114 
	C428.452728,265.796539 411.980927,266.000000 395.256775,266.000000 
	C395.256775,230.317352 395.256775,194.913559 395.256775,159.000000 
	C397.049225,159.000000 398.823090,159.000000 400.596954,159.000000 
	C436.594849,159.000000 472.596161,158.709991 508.588989,159.136963 
	C523.851990,159.318024 539.198425,160.219635 554.328613,162.173996 
	C583.130371,165.894333 611.389282,172.286652 638.877197,181.927521 
	C668.086731,192.172211 695.920044,205.154068 722.214844,221.558899 
	C739.840210,232.555069 756.855530,244.305023 772.493958,257.993469 
	C781.141052,265.562256 790.300293,272.658142 798.186523,280.957458 
	C810.033936,293.425537 821.702515,306.203186 832.099121,319.874298 
	C844.684753,336.423981 857.001282,353.389435 867.337463,371.379730 
	C877.859314,389.693146 886.670837,409.128845 894.659912,428.714111 
	C901.172363,444.679657 905.901062,461.446259 910.412537,478.130310 
	C913.776062,490.569153 916.080627,503.366974 917.852966,516.144165 
	C919.828491,530.385986 921.010498,544.764099 921.901245,559.122437 
	C922.711060,572.177734 923.489563,585.326477 922.849915,598.363770 
	C920.672302,642.746399 912.439575,686.045227 896.907959,727.752319 
	C887.251831,753.682129 875.202637,778.481750 860.593445,802.087341 
	C848.970642,820.867310 836.254883,838.832764 821.788086,855.408142 
	C809.794067,869.150146 796.991943,882.302856 783.574402,894.659729 
	C762.789673,913.801331 739.959045,930.462891 715.547119,944.698853 
	C680.710999,965.013733 643.883850,980.792297 604.480103,989.910706 
	C587.661926,993.802612 570.624329,996.768127 553.641113,999.909485 
	C549.149475,1000.740295 544.481934,1000.584106 539.910583,1001.037109 
	C538.007874,1001.225647 536.145508,1001.822144 534.132446,1002.616577 
	C414.979095,1003.000000 295.958221,1003.000000 176.468658,1003.000000 
z" data-index="1" style="opacity: 1;"></path>
<path fill="#000000" opacity="1.000000" stroke="none" d="
M518.531372,1.000000 
	C520.478088,1.333334 521.950623,1.928970 523.435120,1.960277 
	C542.744995,2.367528 561.703918,5.367211 580.686035,8.763261 
	C603.416321,12.829872 625.467834,19.113031 647.070435,27.037270 
	C668.951172,35.063545 690.330139,44.294678 710.162415,56.682518 
	C725.038391,65.974564 739.969421,75.224350 754.347900,85.250252 
	C763.293518,91.487869 771.534790,98.832077 779.589783,106.226852 
	C790.588318,116.323822 801.515808,126.558266 811.744507,137.420395 
	C830.045105,156.854248 846.262085,178.003540 859.908325,200.970200 
	C868.036011,214.649078 875.990295,228.509659 882.835327,242.855026 
	C895.644470,269.699310 905.231201,297.774048 911.978882,326.773529 
	C913.767517,334.460754 915.348877,342.197174 916.934814,349.929535 
	C917.190613,351.176514 916.970825,352.520996 915.971008,354.251709 
	C914.090515,351.093903 912.149597,347.970276 910.339478,344.772644 
	C899.179626,325.059021 886.820923,306.103149 872.162415,288.846680 
	C857.899963,272.056458 843.586487,255.178772 827.898865,239.760437 
	C803.738037,216.014404 777.062805,195.154831 747.704346,178.060959 
	C731.728821,168.759247 715.614746,159.550110 698.915588,151.671799 
	C675.278137,140.520081 650.870361,131.062637 625.331604,125.039627 
	C607.304199,120.788109 589.239563,116.613014 571.043823,113.189278 
	C560.962463,111.292351 550.595642,110.738388 540.326050,110.044266 
	C476.200439,105.709999 411.987732,109.035049 347.822815,108.002304 
	C346.687988,107.984039 345.552673,108.000015 344.221985,108.000015 
	C344.221985,318.082764 344.221985,527.816040 344.221985,738.000000 
	C345.783478,738.000000 347.231628,738.000000 348.679779,738.000000 
	C403.844513,738.000000 459.010925,738.224304 514.172668,737.819458 
	C525.848022,737.733765 537.509399,735.372620 549.172180,734.016968 
	C570.734497,731.510559 591.365723,725.417419 611.722534,718.090454 
	C630.397156,711.368958 648.090088,702.637573 664.998901,692.387634 
	C683.669983,681.069397 700.840881,667.767395 716.882568,652.843140 
	C733.733582,637.166016 748.469238,619.839294 761.568542,601.012573 
	C761.898010,600.539124 762.525757,600.273193 764.220459,599.015015 
	C763.757507,605.570557 763.949890,611.096863 762.884155,616.368774 
	C759.853882,631.359009 757.200806,646.515930 752.767944,661.111755 
	C745.453979,685.194092 734.294250,707.590698 720.186279,728.552917 
	C708.291138,746.227234 694.485962,762.211548 678.840820,776.524780 
	C659.645325,794.086060 638.216736,808.613586 614.634766,819.649292 
	C594.520203,829.062500 573.559021,836.016724 551.610291,840.120117 
	C532.478516,843.696960 513.285889,845.115417 493.865509,845.054382 
	C442.701172,844.893738 391.534363,845.236694 340.371826,844.891357 
	C317.776215,844.738892 297.361542,837.273865 279.168793,823.713867 
	C260.738922,809.977051 248.148209,792.076233 241.818466,770.141846 
	C239.146164,760.881592 237.207825,751.025574 237.196274,741.437683 
	C236.939835,528.612122 236.954865,315.786163 237.082321,102.960365 
	C237.092972,85.177498 242.343719,68.437187 251.451569,53.264622 
	C262.798737,34.361645 278.522125,19.963451 298.734283,10.668430 
	C309.865845,5.549334 321.436218,2.375455 333.846497,1.398762 
	C395.354218,1.000000 456.708466,1.000000 518.531372,1.000000 
z" data-index="2" style="opacity: 1;"></path>
</svg>